<?xml version="1.0" encoding="iso-8859-1"?>
<!-- Generator: Adobe Illustrator 19.0.0, SVG Export Plug-In . SVG Version: 6.00 Build 0)  -->
<svg version="1.1" id="Layer_1" xmlns="http://www.w3.org/2000/svg" xmlns:xlink="http://www.w3.org/1999/xlink" x="0px" y="0px"
	 viewBox="0 0 473.935 473.935" style="enable-background:new 0 0 473.935 473.935;" xml:space="preserve">
<circle style="fill:#4ABC96;" cx="236.967" cy="236.967" r="236.967"/>
<g>
	<path style="fill:#82725A;" d="M238.752,94.907c-5.411,0-9.807,4.389-9.807,9.807v223.744c0,5.418,4.397,9.807,9.807,9.807
		c5.418,0,9.807-4.389,9.807-9.807V104.714C248.559,99.292,244.17,94.907,238.752,94.907z"/>
	<path style="fill:#82725A;" d="M234.719,325.569c-2.99,2.986-2.99,7.832,0,10.821l63.753,63.756c2.99,2.986,7.835,2.986,10.825,0
		c2.99-2.99,2.99-7.832,0-10.821l-63.753-63.756C242.554,322.58,237.708,322.58,234.719,325.569z"/>
	<path style="fill:#82725A;" d="M243.474,325.569c2.99,2.986,2.99,7.832,0,10.821l-63.753,63.756c-2.986,2.986-7.835,2.986-10.818,0
		c-2.993-2.99-2.993-7.832,0-10.821l63.753-63.753C235.643,322.58,240.488,322.58,243.474,325.569z"/>
</g>
<path style="fill:#F9F29A;" d="M376.517,280.106c0,20.292-16.449,6.125-36.737,6.125H140.785c-20.288,0-36.737,14.166-36.737-6.125
	V127.034c0-20.288,16.449-9.186,36.737-9.186h198.996c20.288,0,36.737-11.106,36.737,9.186V280.106z"/>
<g>
	<rect x="257.252" y="160.598" style="fill:#80702C;" width="102.596" height="6.492"/>
	<rect x="257.611" y="176.837" style="fill:#80702C;" width="102.585" height="6.485"/>
	<rect x="257.555" y="194.087" style="fill:#80702C;" width="102.596" height="6.492"/>
	<rect x="257.555" y="210.775" style="fill:#80702C;" width="56.576" height="6.496"/>
</g>
<path style="fill:#988534;" d="M218.217,175.958c-0.61-1.949-2.395-3.259-4.61-3.259c-0.007,0-0.007,0-0.011,0
	c-2.095,0.082-3.888,1.568-4.352,3.611l-9.751,42.757l-13.5-64.972c-0.442-2.107-2.256-3.626-4.565-3.697
	c-2.069,0-3.91,1.396-4.475,3.401l-12.924,46.413l-12.759-12.767c-1.762-1.759-4.823-1.759-6.582,0l-20.022,20.015l6.586,6.586
	l16.726-16.73l15.113,15.117c1.156,1.141,2.926,1.624,4.471,1.209c1.594-0.419,2.862-1.669,3.297-3.255l9.919-35.629l13.949,67.113
	c0.449,2.163,2.301,3.686,4.528,3.708h0.026c2.181,0,4.049-1.486,4.539-3.618l10.66-46.757l7.405,23.671l8.879-2.773
	L218.217,175.958z"/>
<g>
	<path style="fill:#82725A;" d="M390.295,113.915c0,5.07-5.759,9.186-12.864,9.186H100.074c-7.102,0-12.864-4.112-12.864-9.186l0,0
		c0-5.074,5.762-9.186,12.864-9.186h277.353C384.536,104.729,390.295,108.841,390.295,113.915L390.295,113.915z"/>
	<path style="fill:#82725A;" d="M390.295,284.047c0,5.07-5.759,9.186-12.864,9.186H100.074c-7.102,0-12.864-4.116-12.864-9.186l0,0
		c0-5.074,5.762-9.186,12.864-9.186h277.353C384.536,274.861,390.295,278.973,390.295,284.047L390.295,284.047z"/>
</g>
<g>
</g>
<g>
</g>
<g>
</g>
<g>
</g>
<g>
</g>
<g>
</g>
<g>
</g>
<g>
</g>
<g>
</g>
<g>
</g>
<g>
</g>
<g>
</g>
<g>
</g>
<g>
</g>
<g>
</g>
</svg>
