<svg xmlns="http://www.w3.org/2000/svg" height="511.99998pt" version="1.1" viewBox="1 1 511.99998 511.99998" width="511.99998pt">
<g id="surface1">
<path d="M 512 256 C 512 397.386719 397.386719 512 256 512 C 114.613281 512 0 397.386719 0 256 C 0 114.613281 114.613281 0 256 0 C 397.386719 0 512 114.613281 512 256 Z M 512 256 " style=" stroke:none;fill-rule:nonzero;fill:rgb(94.901961%,26.27451%,33.333333%);fill-opacity:1;" />
<path d="M 430.386719 443.410156 C 387.765625 483.097656 331.613281 508.40625 269.585938 511.644531 C 265.09375 511.882812 260.558594 512 256.003906 512 C 251.449219 512 246.914062 511.882812 242.417969 511.644531 C 180.394531 508.40625 124.230469 483.085938 81.609375 443.402344 L 123.238281 385.703125 C 130.53125 375.597656 142.234375 369.609375 154.679688 369.609375 L 357.296875 369.609375 C 369.75 369.609375 381.441406 375.597656 388.738281 385.703125 Z M 430.386719 443.410156 " style=" stroke:none;fill-rule:nonzero;fill:rgb(16.470588%,25.098039%,47.843137%);fill-opacity:1;" />
<path d="M 269.585938 406.464844 L 269.585938 511.644531 C 265.09375 511.882812 260.558594 512 256.003906 512 C 251.449219 512 246.914062 511.882812 242.417969 511.644531 L 242.417969 406.464844 Z M 269.585938 406.464844 " style=" stroke:none;fill-rule:nonzero;fill:rgb(27.058824%,69.411765%,85.882353%);fill-opacity:1;" />
<path d="M 255.992188 411.691406 L 193.3125 454.53125 L 178.683594 363.625 L 220.472656 358.394531 Z M 255.992188 411.691406 " style=" stroke:none;fill-rule:nonzero;fill:rgb(27.058824%,69.411765%,85.882353%);fill-opacity:1;" />
<path d="M 255.992188 411.691406 L 318.667969 454.53125 L 333.296875 363.625 L 291.507812 358.394531 Z M 255.992188 411.691406 " style=" stroke:none;fill-rule:nonzero;fill:rgb(27.058824%,69.411765%,85.882353%);fill-opacity:1;" />
<path d="M 255.992188 411.691406 C 231.464844 411.691406 211.582031 391.808594 211.582031 367.28125 L 211.582031 328.097656 L 300.398438 328.097656 L 300.398438 367.28125 C 300.398438 391.808594 280.515625 411.691406 255.992188 411.691406 Z M 255.992188 411.691406 " style=" stroke:none;fill-rule:nonzero;fill:rgb(93.72549%,64.313725%,57.254902%);fill-opacity:1;" />
<path d="M 183.988281 227.820312 C 183.988281 247.933594 167.6875 264.234375 147.574219 264.234375 C 127.460938 264.234375 111.160156 247.933594 111.160156 227.820312 C 111.160156 207.707031 127.460938 191.40625 147.574219 191.40625 C 167.6875 191.40625 183.988281 207.707031 183.988281 227.820312 Z M 183.988281 227.820312 " style=" stroke:none;fill-rule:nonzero;fill:rgb(93.72549%,64.313725%,57.254902%);fill-opacity:1;" />
<path d="M 400.210938 227.820312 C 400.210938 247.933594 383.910156 264.234375 363.796875 264.234375 C 343.683594 264.234375 327.382812 247.933594 327.382812 227.820312 C 327.382812 207.707031 343.683594 191.40625 363.796875 191.40625 C 383.910156 191.40625 400.210938 207.707031 400.210938 227.820312 Z M 400.210938 227.820312 " style=" stroke:none;fill-rule:nonzero;fill:rgb(93.72549%,64.313725%,57.254902%);fill-opacity:1;" />
<path d="M 255.992188 359.886719 C 196.113281 359.886719 147.574219 311.34375 147.574219 251.46875 L 147.574219 131.453125 L 364.40625 131.453125 L 364.40625 251.46875 C 364.40625 311.34375 315.867188 359.886719 255.992188 359.886719 Z M 255.992188 359.886719 " style=" stroke:none;fill-rule:nonzero;fill:rgb(100%,74.117647%,66.27451%);fill-opacity:1;" />
<path d="M 271.5 358.777344 C 266.433594 359.507812 261.265625 359.878906 255.996094 359.878906 C 196.113281 359.878906 147.574219 311.347656 147.574219 251.46875 L 147.574219 131.453125 L 178.59375 131.453125 L 178.59375 251.46875 C 178.59375 306.078125 218.972656 351.253906 271.5 358.777344 Z M 271.5 358.777344 " style=" stroke:none;fill-rule:nonzero;fill:rgb(93.72549%,64.313725%,57.254902%);fill-opacity:1;" />
<path d="M 170.476562 104.472656 L 136.921875 121.363281 L 136.921875 198.207031 C 155.453125 198.207031 170.476562 183.183594 170.476562 164.652344 Z M 170.476562 104.472656 " style=" stroke:none;fill-rule:nonzero;fill:rgb(16.470588%,25.098039%,47.843137%);fill-opacity:1;" />
<path d="M 341.5 105.378906 L 375.058594 105.378906 L 375.058594 198.207031 C 356.527344 198.207031 341.5 183.183594 341.5 164.652344 Z M 341.5 105.378906 " style=" stroke:none;fill-rule:nonzero;fill:rgb(16.470588%,25.098039%,47.843137%);fill-opacity:1;" />
<path d="M 299.535156 273.785156 C 299.535156 274.179688 299.535156 274.578125 299.515625 274.976562 C 299.398438 279.675781 298.511719 284.191406 297.007812 288.390625 C 296.777344 289.050781 296.527344 289.699219 296.265625 290.335938 C 294.667969 294.242188 292.503906 297.867188 289.890625 301.097656 C 288.554688 302.78125 287.089844 304.347656 285.511719 305.777344 C 277.75 312.96875 267.382812 317.335938 255.996094 317.335938 C 244.59375 317.335938 234.230469 312.96875 226.464844 305.777344 C 224.898438 304.347656 223.425781 302.78125 222.085938 301.097656 C 219.476562 297.867188 217.3125 294.242188 215.714844 290.335938 C 215.453125 289.699219 215.203125 289.050781 214.972656 288.390625 C 213.46875 284.191406 212.578125 279.675781 212.464844 274.976562 C 212.445312 274.578125 212.445312 274.179688 212.445312 273.785156 Z M 299.535156 273.785156 " style=" stroke:none;fill-rule:nonzero;fill:rgb(100%,100%,100%);fill-opacity:1;" />
<path d="M 255.996094 159.097656 L 235.570312 254.765625 L 255.996094 254.765625 Z M 255.996094 159.097656 " style=" stroke:none;fill-rule:nonzero;fill:rgb(93.72549%,64.313725%,57.254902%);fill-opacity:1;" />
<path d="M 229.164062 209.476562 C 229.164062 198.28125 220.09375 189.210938 208.898438 189.210938 C 197.707031 189.210938 188.632812 198.28125 188.632812 209.476562 Z M 229.164062 209.476562 " style=" stroke:none;fill-rule:nonzero;fill:rgb(93.72549%,64.313725%,57.254902%);fill-opacity:1;" />
<path d="M 323.347656 209.476562 C 323.347656 198.28125 314.273438 189.210938 303.082031 189.210938 C 291.886719 189.210938 282.8125 198.28125 282.8125 209.476562 Z M 323.347656 209.476562 " style=" stroke:none;fill-rule:nonzero;fill:rgb(93.72549%,64.313725%,57.254902%);fill-opacity:1;" />
<path d="M 208.898438 197.507812 C 215.421875 197.507812 220.710938 202.796875 220.710938 209.324219 L 220.710938 227.839844 C 220.710938 234.363281 215.421875 239.652344 208.898438 239.652344 C 202.375 239.652344 197.085938 234.363281 197.085938 227.839844 L 197.085938 209.324219 C 197.085938 202.800781 202.375 197.507812 208.898438 197.507812 Z M 208.898438 197.507812 " style=" stroke:none;fill-rule:nonzero;fill:rgb(17.254902%,12.941176%,20%);fill-opacity:1;" />
<path d="M 303.082031 197.507812 C 309.605469 197.507812 314.894531 202.796875 314.894531 209.324219 L 314.894531 227.839844 C 314.894531 234.363281 309.605469 239.652344 303.082031 239.652344 C 296.558594 239.652344 291.269531 234.363281 291.269531 227.839844 L 291.269531 209.324219 C 291.269531 202.800781 296.558594 197.507812 303.082031 197.507812 Z M 303.082031 197.507812 " style=" stroke:none;fill-rule:nonzero;fill:rgb(17.254902%,12.941176%,20%);fill-opacity:1;" />
<path d="M 316.6875 181.8125 L 195.320312 181.8125 L 184.417969 150.660156 L 327.589844 150.660156 Z M 316.6875 181.8125 " style=" stroke:none;fill-rule:nonzero;fill:rgb(99.215686%,68.235294%,18.431373%);fill-opacity:1;" />
<path d="M 382.097656 132.269531 C 382.097656 62.632812 325.644531 6.175781 256.003906 6.175781 C 186.363281 6.175781 129.910156 62.628906 129.910156 132.269531 " style=" stroke:none;fill-rule:nonzero;fill:rgb(99.215686%,68.235294%,18.431373%);fill-opacity:1;" />
<path d="M 256.007812 6.171875 C 218.960938 6.171875 188.933594 62.625 188.933594 132.269531 L 129.910156 132.269531 C 129.910156 62.628906 186.363281 6.171875 256.007812 6.171875 Z M 256.007812 6.171875 " style=" stroke:none;fill-rule:nonzero;fill:rgb(92.941176%,58.431373%,17.254902%);fill-opacity:1;" />
<path d="M 118.574219 113.882812 L 393.433594 113.882812 L 393.433594 150.660156 L 118.574219 150.660156 Z M 118.574219 113.882812 " style=" stroke:none;fill-rule:nonzero;fill:rgb(99.215686%,68.235294%,18.431373%);fill-opacity:1;" />
<path d="M 118.574219 113.882812 L 165.925781 113.882812 L 165.925781 150.660156 L 118.574219 150.660156 Z M 118.574219 113.882812 " style=" stroke:none;fill-rule:nonzero;fill:rgb(92.941176%,58.431373%,17.254902%);fill-opacity:1;" />
<path d="M 237.476562 0 L 274.53125 0 L 274.53125 127.382812 L 237.476562 127.382812 Z M 237.476562 0 " style=" stroke:none;fill-rule:nonzero;fill:rgb(92.941176%,58.431373%,17.254902%);fill-opacity:1;" />
</g>
</svg>